<?xml version="1.0" standalone="no"?>
<!DOCTYPE svg PUBLIC "-//W3C//DTD SVG 20010904//EN"
 "http://www.w3.org/TR/2001/REC-SVG-20010904/DTD/svg10.dtd">
<svg version="1.0" xmlns="http://www.w3.org/2000/svg"
 width="260.000000pt" height="260.000000pt" viewBox="0 0 260.000000 260.000000"
 preserveAspectRatio="xMidYMid meet">
<metadata>
Created by potrace 1.11, written by Peter Selinger 2001-2013
</metadata>
<g transform="translate(0.000000,260.000000) scale(0.100000,-0.100000)"
fill="#000000" stroke="none">
<path d="M1150 2157 c-124 -57 -210 -185 -216 -321 -3 -57 1 -83 15 -112 11
-22 16 -41 12 -44 -23 -15 -146 -180 -190 -255 -144 -244 -182 -362 -156 -495
5 -25 8 -48 7 -52 -1 -5 3 -8 10 -8 6 0 9 -3 5 -6 -13 -13 76 -153 98 -154 6
0 22 -11 37 -25 15 -14 31 -25 36 -25 5 0 15 -7 22 -15 14 -17 8 -21 -44 -29
-72 -12 -136 -82 -139 -152 -1 -19 -5 -34 -8 -34 -10 0 7 -68 22 -88 7 -9 24
-27 37 -39 20 -18 24 -32 24 -80 0 -75 -8 -132 -27 -176 -8 -20 -15 -39 -15
-42 0 -3 256 -5 568 -5 l569 0 -2 35 c-1 51 10 61 26 23 22 -55 29 -58 134
-58 l96 0 -30 53 c-29 52 -75 175 -85 231 -4 22 0 33 14 43 20 14 50 64 58 93
16 68 -13 158 -66 207 -37 33 -119 72 -147 68 -16 -1 -22 2 -18 11 3 8 8 14
12 14 7 0 65 87 67 99 0 3 3 13 6 21 22 56 26 91 24 182 -7 216 -118 439 -321
641 -54 54 -146 120 -184 132 -20 6 -22 11 -16 39 8 37 17 87 17 101 1 33 -13
119 -19 124 -5 3 -15 19 -23 34 -32 63 -141 96 -210 64z"/>
</g>
</svg>
